<mxfile host="app.diagrams.net" agent="Mozilla/5.0 (Windows NT 10.0; Win64; x64) AppleWebKit/537.36 (KHTML, like Gecko) Chrome/137.0.0.0 Safari/537.36" version="27.1.1">
  <diagram name="Page-1" id="5f0bae14-7c28-e335-631c-24af17079c00">
    <mxGraphModel dx="1042" dy="623" grid="1" gridSize="10" guides="1" tooltips="1" connect="1" arrows="1" fold="1" page="1" pageScale="1" pageWidth="1100" pageHeight="850" background="none" math="0" shadow="0">
      <root>
        <mxCell id="0" />
        <mxCell id="1" parent="0" />
        <mxCell id="nEHZYCnmIB39ogrnqSOL-1" value="" style="shape=folder;fontStyle=1;spacingTop=10;tabWidth=80;tabHeight=20;tabPosition=left;html=1;whiteSpace=wrap;" vertex="1" parent="1">
          <mxGeometry x="200" y="150" width="690" height="80" as="geometry" />
        </mxCell>
        <mxCell id="nEHZYCnmIB39ogrnqSOL-2" value="Usuario" style="html=1;dropTarget=0;whiteSpace=wrap;" vertex="1" parent="1">
          <mxGeometry x="210" y="180" width="100" height="40" as="geometry" />
        </mxCell>
        <mxCell id="nEHZYCnmIB39ogrnqSOL-3" value="  C" style="shape=module;jettyWidth=8;jettyHeight=4;fillColor=#d5e8d4;strokeColor=#82b366;fontStyle=1" vertex="1" parent="nEHZYCnmIB39ogrnqSOL-2">
          <mxGeometry x="1" width="20" height="20" relative="1" as="geometry">
            <mxPoint x="-27" y="7" as="offset" />
          </mxGeometry>
        </mxCell>
        <mxCell id="nEHZYCnmIB39ogrnqSOL-4" value="modelo" style="text;strokeColor=none;align=center;fillColor=none;html=1;verticalAlign=middle;whiteSpace=wrap;rounded=0;" vertex="1" parent="1">
          <mxGeometry x="220" y="150" width="50" height="20" as="geometry" />
        </mxCell>
        <mxCell id="nEHZYCnmIB39ogrnqSOL-5" value="Producto" style="html=1;dropTarget=0;whiteSpace=wrap;fontStyle=0" vertex="1" parent="1">
          <mxGeometry x="320" y="180" width="100" height="40" as="geometry" />
        </mxCell>
        <mxCell id="nEHZYCnmIB39ogrnqSOL-6" value="  C" style="shape=module;jettyWidth=8;jettyHeight=4;fontStyle=1;fillColor=#d5e8d4;strokeColor=#82b366;" vertex="1" parent="nEHZYCnmIB39ogrnqSOL-5">
          <mxGeometry x="1" width="20" height="20" relative="1" as="geometry">
            <mxPoint x="-24" y="5" as="offset" />
          </mxGeometry>
        </mxCell>
        <mxCell id="nEHZYCnmIB39ogrnqSOL-7" value="Pedido" style="html=1;dropTarget=0;whiteSpace=wrap;" vertex="1" parent="1">
          <mxGeometry x="430" y="180" width="90" height="40" as="geometry" />
        </mxCell>
        <mxCell id="nEHZYCnmIB39ogrnqSOL-8" value="  C" style="shape=module;jettyWidth=8;jettyHeight=4;fillColor=#d5e8d4;strokeColor=#82b366;fontStyle=1" vertex="1" parent="nEHZYCnmIB39ogrnqSOL-7">
          <mxGeometry x="1" width="20" height="20" relative="1" as="geometry">
            <mxPoint x="-24" y="5" as="offset" />
          </mxGeometry>
        </mxCell>
        <mxCell id="nEHZYCnmIB39ogrnqSOL-9" value="DetallePedido" style="html=1;dropTarget=0;whiteSpace=wrap;" vertex="1" parent="1">
          <mxGeometry x="530" y="180" width="130" height="40" as="geometry" />
        </mxCell>
        <mxCell id="nEHZYCnmIB39ogrnqSOL-10" value="  C" style="shape=module;jettyWidth=8;jettyHeight=4;fontStyle=1;fillColor=#d5e8d4;strokeColor=#82b366;" vertex="1" parent="nEHZYCnmIB39ogrnqSOL-9">
          <mxGeometry x="1" width="20" height="20" relative="1" as="geometry">
            <mxPoint x="-24" y="5" as="offset" />
          </mxGeometry>
        </mxCell>
        <mxCell id="nEHZYCnmIB39ogrnqSOL-11" value="Calificacion" style="html=1;dropTarget=0;whiteSpace=wrap;" vertex="1" parent="1">
          <mxGeometry x="670" y="180" width="120" height="40" as="geometry" />
        </mxCell>
        <mxCell id="nEHZYCnmIB39ogrnqSOL-12" value="  C" style="shape=module;jettyWidth=8;jettyHeight=4;fillColor=#d5e8d4;strokeColor=#82b366;fontStyle=1" vertex="1" parent="nEHZYCnmIB39ogrnqSOL-11">
          <mxGeometry x="1" width="20" height="20" relative="1" as="geometry">
            <mxPoint x="-24" y="5" as="offset" />
          </mxGeometry>
        </mxCell>
        <mxCell id="nEHZYCnmIB39ogrnqSOL-13" value="Envio" style="html=1;dropTarget=0;whiteSpace=wrap;" vertex="1" parent="1">
          <mxGeometry x="800" y="180" width="80" height="40" as="geometry" />
        </mxCell>
        <mxCell id="nEHZYCnmIB39ogrnqSOL-14" value="  C" style="shape=module;jettyWidth=8;jettyHeight=4;fontStyle=1;fillColor=#d5e8d4;strokeColor=#82b366;" vertex="1" parent="nEHZYCnmIB39ogrnqSOL-13">
          <mxGeometry x="1" width="20" height="20" relative="1" as="geometry">
            <mxPoint x="-24" y="5" as="offset" />
          </mxGeometry>
        </mxCell>
        <mxCell id="nEHZYCnmIB39ogrnqSOL-15" value="" style="shape=folder;fontStyle=1;spacingTop=10;tabWidth=40;tabHeight=20;tabPosition=left;html=1;whiteSpace=wrap;" vertex="1" parent="1">
          <mxGeometry x="200" y="250" width="870" height="210" as="geometry" />
        </mxCell>
        <mxCell id="nEHZYCnmIB39ogrnqSOL-16" value="UsuarioDAO" style="html=1;dropTarget=0;whiteSpace=wrap;align=left;" vertex="1" parent="1">
          <mxGeometry x="210" y="280" width="100" height="40" as="geometry" />
        </mxCell>
        <mxCell id="nEHZYCnmIB39ogrnqSOL-17" value="  I" style="shape=module;jettyWidth=8;jettyHeight=4;fontStyle=1;fillColor=#e1d5e7;strokeColor=#9673a6;" vertex="1" parent="nEHZYCnmIB39ogrnqSOL-16">
          <mxGeometry x="1" width="20" height="20" relative="1" as="geometry">
            <mxPoint x="-27" y="7" as="offset" />
          </mxGeometry>
        </mxCell>
        <mxCell id="nEHZYCnmIB39ogrnqSOL-18" value="dao" style="text;strokeColor=none;align=center;fillColor=none;html=1;verticalAlign=middle;whiteSpace=wrap;rounded=0;" vertex="1" parent="1">
          <mxGeometry x="196" y="250" width="50" height="20" as="geometry" />
        </mxCell>
        <mxCell id="nEHZYCnmIB39ogrnqSOL-41" value="" style="shape=folder;fontStyle=1;spacingTop=10;tabWidth=40;tabHeight=14;tabPosition=left;html=1;whiteSpace=wrap;" vertex="1" parent="1">
          <mxGeometry x="210" y="350" width="850" height="90" as="geometry" />
        </mxCell>
        <mxCell id="nEHZYCnmIB39ogrnqSOL-54" style="edgeStyle=orthogonalEdgeStyle;rounded=0;orthogonalLoop=1;jettySize=auto;html=1;entryX=0.5;entryY=1;entryDx=0;entryDy=0;dashed=1;" edge="1" parent="1" source="nEHZYCnmIB39ogrnqSOL-29" target="nEHZYCnmIB39ogrnqSOL-16">
          <mxGeometry relative="1" as="geometry" />
        </mxCell>
        <mxCell id="nEHZYCnmIB39ogrnqSOL-29" value="&lt;span style=&quot;&quot;&gt;UsuarioDAOImpl&lt;/span&gt;" style="html=1;dropTarget=0;whiteSpace=wrap;align=left;" vertex="1" parent="1">
          <mxGeometry x="220" y="382" width="124" height="40" as="geometry" />
        </mxCell>
        <mxCell id="nEHZYCnmIB39ogrnqSOL-30" value="  C" style="shape=module;jettyWidth=8;jettyHeight=4;fontStyle=1;fillColor=#d5e8d4;strokeColor=#82b366;" vertex="1" parent="nEHZYCnmIB39ogrnqSOL-29">
          <mxGeometry x="1" width="20" height="20" relative="1" as="geometry">
            <mxPoint x="-24" y="5" as="offset" />
          </mxGeometry>
        </mxCell>
        <mxCell id="nEHZYCnmIB39ogrnqSOL-31" value="ProductoDAO" style="html=1;dropTarget=0;whiteSpace=wrap;align=left;" vertex="1" parent="1">
          <mxGeometry x="320" y="280" width="110" height="40" as="geometry" />
        </mxCell>
        <mxCell id="nEHZYCnmIB39ogrnqSOL-32" value="  I" style="shape=module;jettyWidth=8;jettyHeight=4;fontStyle=1;fillColor=#e1d5e7;strokeColor=#9673a6;" vertex="1" parent="nEHZYCnmIB39ogrnqSOL-31">
          <mxGeometry x="1" width="20" height="20" relative="1" as="geometry">
            <mxPoint x="-27" y="7" as="offset" />
          </mxGeometry>
        </mxCell>
        <mxCell id="nEHZYCnmIB39ogrnqSOL-33" value="PedidoDAO" style="html=1;dropTarget=0;whiteSpace=wrap;align=left;" vertex="1" parent="1">
          <mxGeometry x="440" y="280" width="100" height="40" as="geometry" />
        </mxCell>
        <mxCell id="nEHZYCnmIB39ogrnqSOL-34" value="  I" style="shape=module;jettyWidth=8;jettyHeight=4;fontStyle=1;fillColor=#e1d5e7;strokeColor=#9673a6;" vertex="1" parent="nEHZYCnmIB39ogrnqSOL-33">
          <mxGeometry x="1" width="20" height="20" relative="1" as="geometry">
            <mxPoint x="-27" y="7" as="offset" />
          </mxGeometry>
        </mxCell>
        <mxCell id="nEHZYCnmIB39ogrnqSOL-35" value="&lt;span style=&quot;text-align: center;&quot;&gt;DetallePedido&lt;/span&gt;DAO" style="html=1;dropTarget=0;whiteSpace=wrap;align=left;" vertex="1" parent="1">
          <mxGeometry x="550" y="280" width="140" height="40" as="geometry" />
        </mxCell>
        <mxCell id="nEHZYCnmIB39ogrnqSOL-36" value="  I" style="shape=module;jettyWidth=8;jettyHeight=4;fontStyle=1;fillColor=#e1d5e7;strokeColor=#9673a6;" vertex="1" parent="nEHZYCnmIB39ogrnqSOL-35">
          <mxGeometry x="1" width="20" height="20" relative="1" as="geometry">
            <mxPoint x="-27" y="7" as="offset" />
          </mxGeometry>
        </mxCell>
        <mxCell id="nEHZYCnmIB39ogrnqSOL-37" value="&lt;span style=&quot;text-align: center;&quot;&gt;Calificacion&lt;/span&gt;DAO" style="html=1;dropTarget=0;whiteSpace=wrap;align=left;" vertex="1" parent="1">
          <mxGeometry x="700" y="280" width="120" height="40" as="geometry" />
        </mxCell>
        <mxCell id="nEHZYCnmIB39ogrnqSOL-38" value="  I" style="shape=module;jettyWidth=8;jettyHeight=4;fontStyle=1;fillColor=#e1d5e7;strokeColor=#9673a6;" vertex="1" parent="nEHZYCnmIB39ogrnqSOL-37">
          <mxGeometry x="1" width="20" height="20" relative="1" as="geometry">
            <mxPoint x="-27" y="7" as="offset" />
          </mxGeometry>
        </mxCell>
        <mxCell id="nEHZYCnmIB39ogrnqSOL-39" value="&lt;span style=&quot;text-align: center;&quot;&gt;Envio&lt;/span&gt;DAO" style="html=1;dropTarget=0;whiteSpace=wrap;align=left;" vertex="1" parent="1">
          <mxGeometry x="830" y="280" width="90" height="40" as="geometry" />
        </mxCell>
        <mxCell id="nEHZYCnmIB39ogrnqSOL-40" value="  I" style="shape=module;jettyWidth=8;jettyHeight=4;fontStyle=1;fillColor=#e1d5e7;strokeColor=#9673a6;" vertex="1" parent="nEHZYCnmIB39ogrnqSOL-39">
          <mxGeometry x="1" width="20" height="20" relative="1" as="geometry">
            <mxPoint x="-27" y="7" as="offset" />
          </mxGeometry>
        </mxCell>
        <mxCell id="nEHZYCnmIB39ogrnqSOL-42" value="impl" style="text;strokeColor=none;align=center;fillColor=none;html=1;verticalAlign=middle;whiteSpace=wrap;rounded=0;" vertex="1" parent="1">
          <mxGeometry x="210" y="347" width="40" height="20" as="geometry" />
        </mxCell>
        <mxCell id="nEHZYCnmIB39ogrnqSOL-58" style="edgeStyle=orthogonalEdgeStyle;rounded=0;orthogonalLoop=1;jettySize=auto;html=1;entryX=0.5;entryY=1;entryDx=0;entryDy=0;dashed=1;" edge="1" parent="1" source="nEHZYCnmIB39ogrnqSOL-43" target="nEHZYCnmIB39ogrnqSOL-31">
          <mxGeometry relative="1" as="geometry" />
        </mxCell>
        <mxCell id="nEHZYCnmIB39ogrnqSOL-43" value="ProductoDAO&lt;span style=&quot;&quot;&gt;Impl&lt;/span&gt;" style="html=1;dropTarget=0;whiteSpace=wrap;align=left;" vertex="1" parent="1">
          <mxGeometry x="354" y="382" width="130" height="40" as="geometry" />
        </mxCell>
        <mxCell id="nEHZYCnmIB39ogrnqSOL-44" value="  C" style="shape=module;jettyWidth=8;jettyHeight=4;fontStyle=1;fillColor=#d5e8d4;strokeColor=#82b366;" vertex="1" parent="nEHZYCnmIB39ogrnqSOL-43">
          <mxGeometry x="1" width="20" height="20" relative="1" as="geometry">
            <mxPoint x="-24" y="5" as="offset" />
          </mxGeometry>
        </mxCell>
        <mxCell id="nEHZYCnmIB39ogrnqSOL-59" style="edgeStyle=orthogonalEdgeStyle;rounded=0;orthogonalLoop=1;jettySize=auto;html=1;entryX=0.5;entryY=1;entryDx=0;entryDy=0;dashed=1;" edge="1" parent="1" source="nEHZYCnmIB39ogrnqSOL-45" target="nEHZYCnmIB39ogrnqSOL-33">
          <mxGeometry relative="1" as="geometry" />
        </mxCell>
        <mxCell id="nEHZYCnmIB39ogrnqSOL-45" value="&lt;span style=&quot;text-align: center;&quot;&gt;Pedido&lt;/span&gt;DAO&lt;span style=&quot;&quot;&gt;Impl&lt;/span&gt;" style="html=1;dropTarget=0;whiteSpace=wrap;align=left;" vertex="1" parent="1">
          <mxGeometry x="494" y="382" width="120" height="40" as="geometry" />
        </mxCell>
        <mxCell id="nEHZYCnmIB39ogrnqSOL-46" value="  C" style="shape=module;jettyWidth=8;jettyHeight=4;fontStyle=1;fillColor=#d5e8d4;strokeColor=#82b366;" vertex="1" parent="nEHZYCnmIB39ogrnqSOL-45">
          <mxGeometry x="1" width="20" height="20" relative="1" as="geometry">
            <mxPoint x="-24" y="5" as="offset" />
          </mxGeometry>
        </mxCell>
        <mxCell id="nEHZYCnmIB39ogrnqSOL-60" style="edgeStyle=orthogonalEdgeStyle;rounded=0;orthogonalLoop=1;jettySize=auto;html=1;entryX=0.5;entryY=1;entryDx=0;entryDy=0;dashed=1;" edge="1" parent="1" source="nEHZYCnmIB39ogrnqSOL-47" target="nEHZYCnmIB39ogrnqSOL-35">
          <mxGeometry relative="1" as="geometry" />
        </mxCell>
        <mxCell id="nEHZYCnmIB39ogrnqSOL-47" value="&lt;span style=&quot;text-align: center;&quot;&gt;DetallePedido&lt;/span&gt;DAO&lt;span style=&quot;&quot;&gt;Impl&lt;/span&gt;" style="html=1;dropTarget=0;whiteSpace=wrap;align=left;" vertex="1" parent="1">
          <mxGeometry x="625" y="382" width="155" height="40" as="geometry" />
        </mxCell>
        <mxCell id="nEHZYCnmIB39ogrnqSOL-48" value="  C" style="shape=module;jettyWidth=8;jettyHeight=4;fontStyle=1;fillColor=#d5e8d4;strokeColor=#82b366;" vertex="1" parent="nEHZYCnmIB39ogrnqSOL-47">
          <mxGeometry x="1" width="20" height="20" relative="1" as="geometry">
            <mxPoint x="-24" y="5" as="offset" />
          </mxGeometry>
        </mxCell>
        <mxCell id="nEHZYCnmIB39ogrnqSOL-49" value="&lt;span style=&quot;text-align: center;&quot;&gt;Calificacion&lt;/span&gt;DAO&lt;span style=&quot;&quot;&gt;Impl&lt;/span&gt;" style="html=1;dropTarget=0;whiteSpace=wrap;align=left;" vertex="1" parent="1">
          <mxGeometry x="790" y="382" width="140" height="40" as="geometry" />
        </mxCell>
        <mxCell id="nEHZYCnmIB39ogrnqSOL-50" value="  C" style="shape=module;jettyWidth=8;jettyHeight=4;fontStyle=1;fillColor=#d5e8d4;strokeColor=#82b366;" vertex="1" parent="nEHZYCnmIB39ogrnqSOL-49">
          <mxGeometry x="1" width="20" height="20" relative="1" as="geometry">
            <mxPoint x="-24" y="5" as="offset" />
          </mxGeometry>
        </mxCell>
        <mxCell id="nEHZYCnmIB39ogrnqSOL-51" value="&lt;span style=&quot;text-align: center;&quot;&gt;Envio&lt;/span&gt;DAO&lt;span style=&quot;&quot;&gt;Impl&lt;/span&gt;" style="html=1;dropTarget=0;whiteSpace=wrap;align=left;" vertex="1" parent="1">
          <mxGeometry x="940" y="382" width="110" height="40" as="geometry" />
        </mxCell>
        <mxCell id="nEHZYCnmIB39ogrnqSOL-52" value="  C" style="shape=module;jettyWidth=8;jettyHeight=4;fontStyle=1;fillColor=#d5e8d4;strokeColor=#82b366;" vertex="1" parent="nEHZYCnmIB39ogrnqSOL-51">
          <mxGeometry x="1" width="20" height="20" relative="1" as="geometry">
            <mxPoint x="-24" y="5" as="offset" />
          </mxGeometry>
        </mxCell>
        <mxCell id="nEHZYCnmIB39ogrnqSOL-53" style="edgeStyle=orthogonalEdgeStyle;rounded=0;orthogonalLoop=1;jettySize=auto;html=1;exitX=0.5;exitY=1;exitDx=0;exitDy=0;entryX=0.707;entryY=0.088;entryDx=0;entryDy=0;entryPerimeter=0;dashed=1;" edge="1" parent="1" source="nEHZYCnmIB39ogrnqSOL-2" target="nEHZYCnmIB39ogrnqSOL-16">
          <mxGeometry relative="1" as="geometry">
            <Array as="points">
              <mxPoint x="260" y="250" />
              <mxPoint x="280" y="250" />
              <mxPoint x="280" y="284" />
            </Array>
          </mxGeometry>
        </mxCell>
        <mxCell id="nEHZYCnmIB39ogrnqSOL-55" style="edgeStyle=orthogonalEdgeStyle;rounded=0;orthogonalLoop=1;jettySize=auto;html=1;entryX=0.415;entryY=0.033;entryDx=0;entryDy=0;entryPerimeter=0;dashed=1;" edge="1" parent="1" source="nEHZYCnmIB39ogrnqSOL-5" target="nEHZYCnmIB39ogrnqSOL-31">
          <mxGeometry relative="1" as="geometry">
            <Array as="points">
              <mxPoint x="350" y="250" />
              <mxPoint x="366" y="250" />
              <mxPoint x="366" y="281" />
            </Array>
          </mxGeometry>
        </mxCell>
        <mxCell id="nEHZYCnmIB39ogrnqSOL-56" style="edgeStyle=orthogonalEdgeStyle;rounded=0;orthogonalLoop=1;jettySize=auto;html=1;entryX=0.5;entryY=0;entryDx=0;entryDy=0;dashed=1;" edge="1" parent="1" source="nEHZYCnmIB39ogrnqSOL-7" target="nEHZYCnmIB39ogrnqSOL-33">
          <mxGeometry relative="1" as="geometry" />
        </mxCell>
        <mxCell id="nEHZYCnmIB39ogrnqSOL-57" style="edgeStyle=orthogonalEdgeStyle;rounded=0;orthogonalLoop=1;jettySize=auto;html=1;dashed=1;" edge="1" parent="1" source="nEHZYCnmIB39ogrnqSOL-9" target="nEHZYCnmIB39ogrnqSOL-35">
          <mxGeometry relative="1" as="geometry" />
        </mxCell>
        <mxCell id="nEHZYCnmIB39ogrnqSOL-61" style="edgeStyle=orthogonalEdgeStyle;rounded=0;orthogonalLoop=1;jettySize=auto;html=1;entryX=0.451;entryY=1.053;entryDx=0;entryDy=0;entryPerimeter=0;dashed=1;" edge="1" parent="1" source="nEHZYCnmIB39ogrnqSOL-49" target="nEHZYCnmIB39ogrnqSOL-37">
          <mxGeometry relative="1" as="geometry" />
        </mxCell>
        <mxCell id="nEHZYCnmIB39ogrnqSOL-62" style="edgeStyle=orthogonalEdgeStyle;rounded=0;orthogonalLoop=1;jettySize=auto;html=1;entryX=0.591;entryY=1.012;entryDx=0;entryDy=0;entryPerimeter=0;dashed=1;" edge="1" parent="1" source="nEHZYCnmIB39ogrnqSOL-51" target="nEHZYCnmIB39ogrnqSOL-39">
          <mxGeometry relative="1" as="geometry">
            <Array as="points">
              <mxPoint x="995" y="350" />
              <mxPoint x="883" y="350" />
            </Array>
          </mxGeometry>
        </mxCell>
        <mxCell id="nEHZYCnmIB39ogrnqSOL-63" style="edgeStyle=orthogonalEdgeStyle;rounded=0;orthogonalLoop=1;jettySize=auto;html=1;dashed=1;" edge="1" parent="1" source="nEHZYCnmIB39ogrnqSOL-11" target="nEHZYCnmIB39ogrnqSOL-37">
          <mxGeometry relative="1" as="geometry" />
        </mxCell>
        <mxCell id="nEHZYCnmIB39ogrnqSOL-64" style="edgeStyle=orthogonalEdgeStyle;rounded=0;orthogonalLoop=1;jettySize=auto;html=1;dashed=1;" edge="1" parent="1" source="nEHZYCnmIB39ogrnqSOL-13" target="nEHZYCnmIB39ogrnqSOL-39">
          <mxGeometry relative="1" as="geometry" />
        </mxCell>
      </root>
    </mxGraphModel>
  </diagram>
</mxfile>
